<svg width="565" height="469" viewBox="0 0 565 469" fill="none" xmlns="http://www.w3.org/2000/svg">
<path d="M418.453 436.304L418.082 437.232L418.453 436.304ZM483.401 436.304L484.179 436.933L483.401 436.304ZM306.374 387.449L307.44 398.946L316.864 392.274L306.374 387.449ZM307.315 390.49C307.708 391.035 308.101 391.577 308.497 392.118L310.111 390.937C309.718 390.4 309.327 389.862 308.937 389.321L307.315 390.49ZM309.686 393.732C310.085 394.27 310.485 394.805 310.887 395.338L312.485 394.135C312.086 393.606 311.688 393.074 311.292 392.54L309.686 393.732ZM312.107 396.947C312.515 397.481 312.924 398.013 313.335 398.542L314.915 397.316C314.508 396.791 314.101 396.263 313.696 395.733L312.107 396.947ZM314.57 400.123C314.983 400.648 315.398 401.171 315.814 401.692L317.377 400.444C316.964 399.927 316.552 399.407 316.141 398.886L314.57 400.123ZM317.081 403.266C317.505 403.789 317.93 404.309 318.356 404.826L319.9 403.555C319.477 403.041 319.055 402.525 318.635 402.007L317.081 403.266ZM319.637 406.37C320.065 406.883 320.495 407.393 320.925 407.9L322.45 406.606C322.023 406.102 321.597 405.596 321.171 405.088L319.637 406.37ZM322.24 409.437C322.68 409.947 323.12 410.454 323.562 410.958L325.067 409.641C324.628 409.14 324.191 408.637 323.755 408.131L322.24 409.437ZM324.89 412.463C325.334 412.962 325.779 413.458 326.225 413.952L327.709 412.611C327.266 412.121 326.825 411.629 326.385 411.134L324.89 412.463ZM327.588 415.448C328.044 415.944 328.5 416.437 328.958 416.927L330.42 415.562C329.966 415.076 329.513 414.587 329.061 414.095L327.588 415.448ZM330.334 418.388C330.794 418.873 331.254 419.354 331.716 419.833L333.155 418.444C332.697 417.969 332.24 417.492 331.784 417.012L330.334 418.388ZM333.129 421.284C333.601 421.765 334.073 422.242 334.547 422.717L335.962 421.303C335.493 420.833 335.024 420.359 334.556 419.883L333.129 421.284ZM335.972 424.131C336.448 424.6 336.926 425.066 337.404 425.528L338.795 424.09C338.32 423.632 337.847 423.17 337.374 422.705L335.972 424.131ZM338.867 426.93C339.355 427.393 339.844 427.854 340.335 428.311L341.699 426.848C341.213 426.395 340.728 425.939 340.244 425.479L338.867 426.93ZM341.808 429.672C342.303 430.125 342.798 430.574 343.295 431.02L344.631 429.532C344.139 429.09 343.648 428.645 343.158 428.197L341.808 429.672ZM344.807 432.366C345.313 432.811 345.818 433.252 346.325 433.69L347.633 432.176C347.131 431.743 346.63 431.306 346.129 430.865L344.807 432.366ZM347.848 434.992C348.362 435.427 348.877 435.859 349.392 436.286L350.669 434.747C350.159 434.324 349.649 433.897 349.141 433.466L347.848 434.992ZM350.956 437.57C351.478 437.994 352.001 438.414 352.524 438.83L353.769 437.264C353.251 436.853 352.733 436.437 352.217 436.017L350.956 437.57ZM354.097 440.067C354.631 440.482 355.166 440.894 355.702 441.301L356.912 439.709C356.383 439.306 355.853 438.899 355.325 438.488L354.097 440.067ZM357.317 442.515C357.856 442.915 358.395 443.312 358.936 443.704L360.11 442.085C359.576 441.697 359.042 441.305 358.509 440.91L357.317 442.515ZM360.567 444.873C361.12 445.265 361.674 445.652 362.229 446.035L363.365 444.389C362.817 444.011 362.269 443.628 361.722 443.24L360.567 444.873ZM363.895 447.17C364.451 447.544 365.007 447.914 365.564 448.278L366.66 446.605C366.11 446.245 365.56 445.88 365.011 445.511L363.895 447.17ZM367.263 449.376C367.834 449.739 368.405 450.098 368.977 450.452L370.029 448.751C369.465 448.402 368.901 448.048 368.338 447.689L367.263 449.376ZM370.693 451.498C371.269 451.844 371.846 452.185 372.422 452.521L373.429 450.793C372.86 450.462 372.292 450.125 371.723 449.784L370.693 451.498ZM374.184 453.531C374.771 453.862 375.359 454.188 375.947 454.509L376.905 452.753C376.325 452.437 375.746 452.116 375.166 451.789L374.184 453.531ZM377.713 455.456C378.314 455.772 378.915 456.083 379.517 456.389L380.422 454.605C379.83 454.305 379.237 453.998 378.645 453.686L377.713 455.456ZM381.327 457.29C381.931 457.585 382.535 457.875 383.139 458.158L383.989 456.348C383.394 456.069 382.8 455.784 382.205 455.493L381.327 457.29ZM384.977 459.002C385.595 459.281 386.214 459.553 386.833 459.819L387.623 457.981C387.014 457.72 386.406 457.452 385.797 457.178L384.977 459.002ZM388.69 460.598C389.314 460.854 389.938 461.104 390.562 461.347L391.288 459.483C390.675 459.244 390.062 458.999 389.448 458.748L388.69 460.598ZM392.461 462.068C393.095 462.301 393.728 462.528 394.361 462.749L395.019 460.86C394.397 460.644 393.776 460.421 393.154 460.191L392.461 462.068ZM396.268 463.393C396.915 463.605 397.562 463.81 398.208 464.008L398.793 462.095C398.159 461.901 397.525 461.7 396.891 461.493L396.268 463.393ZM400.146 464.58C400.794 464.764 401.441 464.941 402.088 465.11L402.596 463.176C401.962 463.01 401.328 462.836 400.693 462.656L400.146 464.58ZM404.063 465.606C404.721 465.764 405.379 465.915 406.036 466.057L406.46 464.103C405.817 463.963 405.174 463.816 404.53 463.662L404.063 465.606ZM408.01 466.464C408.678 466.594 409.346 466.715 410.013 466.829L410.35 464.858C409.698 464.747 409.045 464.627 408.391 464.5L408.01 466.464ZM412.013 467.147C412.681 467.245 413.348 467.336 414.014 467.417L414.258 465.432C413.608 465.352 412.956 465.264 412.304 465.169L412.013 467.147ZM416.038 467.641C416.712 467.707 417.385 467.765 418.057 467.814L418.203 465.819C417.547 465.772 416.891 465.715 416.233 465.651L416.038 467.641ZM420.077 467.936C420.755 467.969 421.433 467.992 422.11 468.007L422.154 466.007C421.494 465.993 420.834 465.97 420.172 465.938L420.077 467.936ZM424.138 468.024C424.815 468.021 425.491 468.009 426.165 467.987L426.102 465.988C425.446 466.009 424.788 466.021 424.129 466.024L424.138 468.024ZM428.197 467.896C428.873 467.856 429.547 467.807 430.221 467.748L430.048 465.756C429.393 465.813 428.737 465.86 428.079 465.899L428.197 467.896ZM432.241 467.544C432.914 467.467 433.586 467.38 434.256 467.283L433.971 465.304C433.319 465.398 432.666 465.482 432.012 465.558L432.241 467.544ZM436.263 466.965C436.93 466.85 437.595 466.724 438.258 466.589L437.86 464.63C437.215 464.761 436.569 464.882 435.921 464.994L436.263 466.965ZM440.243 466.156C440.903 466.002 441.561 465.838 442.218 465.664L441.706 463.731C441.068 463.9 440.429 464.059 439.788 464.209L440.243 466.156ZM444.171 465.117C444.819 464.925 445.466 464.723 446.11 464.512L445.487 462.612C444.861 462.817 444.233 463.013 443.604 463.199L444.171 465.117ZM448.038 463.849C448.671 463.62 449.303 463.382 449.932 463.134L449.2 461.273C448.588 461.514 447.975 461.745 447.359 461.967L448.038 463.849ZM451.811 462.364C452.436 462.097 453.058 461.821 453.678 461.534L452.84 459.718C452.237 459.997 451.632 460.265 451.026 460.524L451.811 462.364ZM455.499 460.663C456.103 460.363 456.705 460.054 457.305 459.736L456.367 457.969C455.784 458.279 455.198 458.58 454.611 458.871L455.499 460.663ZM459.099 458.752C459.68 458.422 460.26 458.083 460.837 457.735L459.805 456.022C459.242 456.361 458.678 456.691 458.112 457.012L459.099 458.752ZM462.56 456.665C463.132 456.299 463.702 455.924 464.27 455.539L463.148 453.883C462.595 454.258 462.04 454.624 461.482 454.98L462.56 456.665ZM465.921 454.39C466.467 454 467.011 453.601 467.553 453.193L466.35 451.595C465.821 451.993 465.291 452.383 464.758 452.763L465.921 454.39ZM469.171 451.943C469.695 451.528 470.216 451.105 470.736 450.673L469.457 449.135C468.95 449.557 468.441 449.97 467.929 450.375L469.171 451.943ZM472.272 449.365C472.781 448.921 473.289 448.469 473.794 448.008L472.446 446.53C471.952 446.981 471.456 447.423 470.958 447.857L472.272 449.365ZM475.277 446.625C475.758 446.167 476.237 445.7 476.714 445.226L475.304 443.807C474.837 444.272 474.368 444.729 473.897 445.178L475.277 446.625ZM478.139 443.779C478.61 443.29 479.08 442.793 479.547 442.288L478.079 440.93C477.621 441.424 477.161 441.911 476.699 442.39L478.139 443.779ZM480.886 440.813C481.33 440.314 481.772 439.808 482.213 439.294L480.694 437.993C480.262 438.497 479.828 438.993 479.392 439.483L480.886 440.813ZM483.526 437.731C483.744 437.467 483.962 437.201 484.179 436.933L482.624 435.674C482.411 435.938 482.198 436.199 481.984 436.458L483.526 437.731ZM484.179 436.933C484.413 436.644 484.642 436.356 484.867 436.071L483.296 434.833C483.077 435.111 482.853 435.392 482.624 435.674L484.179 436.933ZM486.158 434.387C486.57 433.834 486.963 433.29 487.338 432.754L485.699 431.608C485.336 432.127 484.955 432.655 484.554 433.193L486.158 434.387ZM488.45 431.106C488.856 430.482 489.236 429.87 489.59 429.27L487.868 428.253C487.529 428.828 487.164 429.415 486.773 430.016L488.45 431.106ZM490.579 427.502C490.913 426.867 491.218 426.246 491.494 425.638L489.672 424.812C489.414 425.382 489.126 425.968 488.809 426.569L490.579 427.502ZM492.303 423.67C492.547 423.004 492.754 422.354 492.925 421.72L490.994 421.2C490.84 421.773 490.651 422.367 490.425 422.981L492.303 423.67ZM493.374 419.577C493.48 418.846 493.534 418.139 493.535 417.454L491.535 417.451C491.534 418.034 491.488 418.646 491.395 419.288L493.374 419.577ZM493.346 415.261C493.212 414.514 493.007 413.803 492.735 413.127L490.879 413.874C491.099 414.421 491.267 415 491.378 415.615L493.346 415.261ZM491.696 411.17C491.286 410.56 490.813 409.991 490.285 409.461L488.869 410.874C489.312 411.318 489.702 411.788 490.036 412.286L491.696 411.17ZM488.64 408.062C488.065 407.645 487.449 407.259 486.795 406.904L485.84 408.661C486.424 408.979 486.966 409.318 487.465 409.68L488.64 408.062ZM484.901 405.998C484.265 405.732 483.602 405.487 482.915 405.263L482.295 407.164C482.935 407.373 483.546 407.599 484.127 407.843L484.901 405.998ZM480.912 404.685C480.251 404.517 479.572 404.365 478.875 404.229L478.491 406.192C479.154 406.321 479.797 406.465 480.42 406.623L480.912 404.685ZM476.841 403.881C476.165 403.781 475.475 403.694 474.773 403.62L474.562 405.608C475.238 405.68 475.901 405.764 476.548 405.86L476.841 403.881ZM472.741 403.44C472.054 403.391 471.357 403.353 470.651 403.325L470.572 405.323C471.258 405.35 471.934 405.387 472.598 405.435L472.741 403.44ZM468.63 403.273C467.949 403.265 467.26 403.266 466.565 403.275L466.593 405.275C467.271 405.266 467.943 405.265 468.606 405.273L468.63 403.273ZM464.519 403.327C463.845 403.352 463.165 403.385 462.481 403.425L462.597 405.421C463.267 405.382 463.933 405.35 464.593 405.326L464.519 403.327ZM460.418 403.566C459.748 403.619 459.075 403.679 458.399 403.745L458.593 405.735C459.257 405.67 459.918 405.612 460.575 405.56L460.418 403.566ZM456.363 403.962C455.687 404.041 455.009 404.125 454.33 404.216L454.595 406.198C455.263 406.109 455.929 406.026 456.593 405.949L456.363 403.962ZM452.313 404.503C451.64 404.604 450.966 404.711 450.293 404.823L450.622 406.796C451.286 406.685 451.949 406.58 452.611 406.48L452.313 404.503ZM448.281 405.176C447.612 405.299 446.943 405.427 446.276 405.56L446.668 407.521C447.324 407.39 447.983 407.264 448.641 407.143L448.281 405.176ZM444.28 405.974C443.611 406.119 442.945 406.268 442.281 406.422L442.733 408.37C443.387 408.218 444.043 408.072 444.702 407.929L444.28 405.974ZM440.298 406.898C439.636 407.063 438.978 407.232 438.323 407.406L438.836 409.339C439.481 409.168 440.129 409.001 440.781 408.839L440.298 406.898ZM436.344 407.949C435.689 408.134 435.039 408.324 434.394 408.518L434.971 410.433C435.605 410.242 436.244 410.055 436.889 409.873L436.344 407.949ZM432.433 409.127C431.778 409.337 431.13 409.552 430.489 409.77L431.135 411.663C431.763 411.449 432.4 411.238 433.044 411.032L432.433 409.127ZM428.579 410.442C427.922 410.68 427.274 410.923 426.636 411.17L427.358 413.035C427.982 412.794 428.617 412.556 429.261 412.322L428.579 410.442ZM424.754 411.923C424.107 412.191 423.472 412.463 422.85 412.739L423.661 414.567C424.267 414.298 424.886 414.033 425.518 413.771L424.754 411.923ZM420.989 413.596C420.358 413.897 419.744 414.203 419.147 414.513L420.068 416.288C420.645 415.989 421.24 415.693 421.852 415.4L420.989 413.596ZM417.325 415.502C416.713 415.85 416.122 416.203 415.555 416.56L416.621 418.252C417.161 417.912 417.725 417.575 418.314 417.24L417.325 415.502ZM413.818 417.721C413.227 418.143 412.669 418.57 412.147 419.002L413.423 420.542C413.904 420.144 414.423 419.746 414.979 419.351L413.818 417.721ZM410.605 420.403C410.063 420.947 409.578 421.502 409.157 422.066L410.761 423.262C411.117 422.784 411.538 422.3 412.022 421.814L410.605 420.403ZM408.009 423.973C407.679 424.691 407.457 425.429 407.364 426.181L409.349 426.426C409.414 425.903 409.571 425.363 409.826 424.807L408.009 423.973ZM407.516 428.546C407.707 429.285 408.032 430.005 408.488 430.702L410.161 429.608C409.813 429.076 409.584 428.555 409.453 428.047L407.516 428.546ZM409.883 432.383C410.361 432.853 410.905 433.313 411.516 433.761L412.7 432.15C412.157 431.75 411.687 431.352 411.286 430.957L409.883 432.383ZM413.345 434.958C413.897 435.282 414.489 435.602 415.122 435.916L416.012 434.125C415.417 433.829 414.867 433.532 414.358 433.234L413.345 434.958ZM417.038 436.8C417.376 436.945 417.724 437.089 418.082 437.232L418.824 435.375C418.482 435.238 418.149 435.1 417.827 434.962L417.038 436.8ZM418.082 437.232C418.407 437.362 418.731 437.488 419.053 437.609L419.756 435.736C419.447 435.62 419.137 435.5 418.824 435.375L418.082 437.232ZM420.967 438.28C421.621 438.493 422.268 438.686 422.909 438.861L423.435 436.931C422.826 436.765 422.21 436.581 421.586 436.378L420.967 438.28ZM424.883 439.344C425.561 439.49 426.231 439.615 426.892 439.718L427.201 437.742C426.578 437.645 425.947 437.528 425.306 437.389L424.883 439.344ZM428.906 439.969C429.602 440.034 430.289 440.074 430.966 440.09L431.015 438.091C430.384 438.076 429.742 438.038 429.091 437.978L428.906 439.969ZM433.006 440.067C433.702 440.034 434.387 439.975 435.063 439.891L434.816 437.906C434.191 437.984 433.556 438.039 432.911 438.069L433.006 440.067ZM437.095 439.557C437.771 439.418 438.436 439.253 439.089 439.064L438.531 437.143C437.929 437.318 437.316 437.47 436.692 437.598L437.095 439.557ZM441.048 438.408C441.691 438.164 442.323 437.895 442.942 437.602L442.087 435.794C441.514 436.065 440.931 436.313 440.338 436.538L441.048 438.408ZM444.768 436.651C445.361 436.313 445.942 435.952 446.512 435.571L445.399 433.909C444.868 434.265 444.328 434.6 443.778 434.913L444.768 436.651ZM448.174 434.373C448.712 433.957 449.239 433.521 449.756 433.066L448.435 431.565C447.949 431.992 447.454 432.401 446.95 432.791L448.174 434.373ZM451.242 431.679C451.721 431.205 452.19 430.714 452.65 430.208L451.169 428.864C450.733 429.344 450.288 429.809 449.835 430.257L451.242 431.679ZM453.981 428.667C454.405 428.15 454.821 427.62 455.228 427.078L453.627 425.878C453.238 426.398 452.841 426.904 452.436 427.397L453.981 428.667ZM456.411 425.427C456.788 424.878 457.158 424.316 457.52 423.744L455.83 422.675C455.481 423.227 455.125 423.767 454.762 424.295L456.411 425.427ZM458.568 422.021C458.905 421.444 459.236 420.857 459.559 420.262L457.801 419.308C457.488 419.885 457.168 420.453 456.842 421.011L458.568 422.021ZM460.489 418.484C460.791 417.887 461.086 417.281 461.375 416.669L459.565 415.816C459.284 416.413 458.997 417.002 458.704 417.582L460.489 418.484ZM462.203 414.85C462.472 414.239 462.735 413.622 462.993 412.998L461.144 412.236C460.892 412.845 460.636 413.448 460.373 414.043L462.203 414.85ZM463.734 411.142C463.975 410.52 464.21 409.894 464.439 409.262L462.559 408.579C462.335 409.198 462.105 409.812 461.869 410.42L463.734 411.142ZM465.104 407.376C465.319 406.747 465.529 406.113 465.733 405.475L463.829 404.864C463.628 405.49 463.422 406.112 463.211 406.73L465.104 407.376ZM466.328 403.566C466.521 402.93 466.708 402.29 466.891 401.647L464.967 401.1C464.787 401.732 464.603 402.362 464.414 402.988L466.328 403.566ZM467.422 399.721C467.594 399.078 467.762 398.433 467.924 397.787L465.985 397.299C465.824 397.936 465.66 398.571 465.49 399.204L467.422 399.721ZM468.398 395.847C468.551 395.199 468.7 394.55 468.845 393.9L466.892 393.466C466.75 394.107 466.603 394.748 466.452 395.386L468.398 395.847ZM469.265 391.95C469.401 391.298 469.532 390.645 469.66 389.992L467.697 389.609C467.571 390.253 467.441 390.898 467.307 391.541L469.265 391.95ZM470.03 388.034C470.15 387.377 470.266 386.722 470.378 386.067L468.406 385.731C468.296 386.378 468.181 387.026 468.063 387.674L470.03 388.034ZM470.701 384.102C470.806 383.442 470.906 382.783 471.003 382.126L469.024 381.836C468.929 382.485 468.829 383.136 468.726 383.789L470.701 384.102ZM471.281 380.158C471.371 379.494 471.457 378.833 471.539 378.174L469.555 377.927C469.473 378.578 469.388 379.233 469.299 379.889L471.281 380.158ZM471.774 376.202C471.85 375.535 471.922 374.871 471.99 374.212L470 374.007C469.933 374.659 469.862 375.316 469.787 375.976L471.774 376.202ZM472.183 372.233C472.244 371.564 472.302 370.9 472.355 370.242L470.362 370.08C470.309 370.731 470.252 371.388 470.191 372.049L472.183 372.233ZM472.506 368.254C472.553 367.585 472.596 366.923 472.635 366.268L470.638 366.15C470.6 366.798 470.557 367.452 470.511 368.113L472.506 368.254ZM472.742 364.268C472.774 363.6 472.802 362.941 472.825 362.29L470.826 362.217C470.803 362.86 470.776 363.512 470.744 364.173L472.742 364.268ZM472.886 360.283C472.893 359.953 472.9 359.627 472.906 359.303L470.906 359.268C470.901 359.587 470.894 359.91 470.886 360.235L472.886 360.283Z" fill="#473080"/>
<path d="M266.673 368.459C266.306 368.472 265.938 368.465 265.568 368.438L21.534 350.416C18.9197 350.222 16.5322 349.016 14.8093 347.019C13.0863 345.023 12.2442 342.482 12.4378 339.87L36.1636 18.6393C36.3571 16.025 37.563 13.6376 39.5597 11.9147C41.5564 10.1917 44.095 9.34961 46.7093 9.54319L290.743 27.566C293.358 27.7596 295.745 28.9655 297.468 30.9622C299.191 32.9589 300.033 35.4994 299.84 38.1117L276.114 359.344C275.92 361.958 274.714 364.346 272.718 366.069C271.004 367.545 268.89 368.375 266.673 368.459ZM45.6973 11.8924C44.0152 11.9558 42.4106 12.5867 41.1087 13.7091C39.5915 15.0175 38.6753 16.8293 38.5295 18.8113L14.8038 340.044C14.658 342.026 15.2972 343.953 16.6056 345.47C17.914 346.988 19.7259 347.904 21.7079 348.05L265.742 366.072C267.724 366.22 269.651 365.579 271.169 364.271C272.686 362.962 273.602 361.15 273.748 359.168L297.473 37.9378C297.619 35.9558 296.98 34.0285 295.672 32.5112C294.363 30.994 292.551 30.0779 290.569 29.932L46.5353 11.9092C46.2541 11.8869 45.9754 11.8819 45.6973 11.8924Z" fill="#AEA6C6"/>
<path d="M280.238 426.576L44.7081 360.218C40.122 358.927 37.428 354.117 38.7189 349.533L126.069 39.4974C127.36 34.9113 132.17 32.2173 136.754 33.5082L372.284 99.866C376.87 101.157 379.564 105.967 378.273 110.551L290.923 420.587C289.632 425.173 284.822 427.867 280.238 426.576Z" fill="#D7D4E3"/>
<path d="M295.252 141.148L180.906 108.931C177.514 107.977 175.52 104.419 176.476 101.027C177.433 97.6354 180.989 95.6409 184.381 96.5976L298.727 128.814C302.119 129.769 304.113 133.327 303.156 136.718C302.202 140.11 298.644 142.103 295.252 141.148Z" fill="url(#paint0_linear_148_5906)"/>
<path d="M318.036 186.272L137.917 135.526C134.526 134.57 132.531 131.014 133.488 127.622C134.444 124.23 138 122.236 141.392 123.192L321.51 173.939C324.902 174.893 326.897 178.451 325.94 181.843C324.983 185.235 321.427 187.229 318.036 186.272Z" fill="url(#paint1_linear_148_5906)"/>
<path d="M310.035 214.67L129.916 163.924C126.525 162.967 124.53 159.411 125.487 156.019C126.443 152.628 129.999 150.633 133.391 151.59L313.51 202.336C316.901 203.293 318.896 206.849 317.939 210.24C316.984 213.632 313.426 215.625 310.035 214.67Z" fill="url(#paint2_linear_148_5906)"/>
<path d="M302.034 243.066L121.915 192.32C118.524 191.365 116.529 187.807 117.486 184.415C118.442 181.024 121.998 179.029 125.39 179.986L305.508 230.732C308.9 231.689 310.895 235.245 309.938 238.636C308.983 242.028 305.425 244.022 302.034 243.066Z" fill="url(#paint3_linear_148_5906)"/>
<path d="M294.033 271.461L113.914 220.715C110.523 219.76 108.528 216.202 109.485 212.81C110.441 209.419 113.997 207.424 117.389 208.381L297.508 259.127C300.899 260.082 302.894 263.64 301.937 267.031C300.982 270.423 297.426 272.418 294.033 271.461Z" fill="url(#paint4_linear_148_5906)"/>
<path d="M286.034 299.859L105.915 249.113C102.523 248.156 100.529 244.6 101.486 241.208C102.44 237.817 105.998 235.822 109.39 236.779L289.508 287.525C292.9 288.482 294.894 292.038 293.938 295.429C292.983 298.821 289.425 300.814 286.034 299.859Z" fill="url(#paint5_linear_148_5906)"/>
<path d="M278.033 328.255L97.9142 277.509C94.5225 276.554 92.5281 272.996 93.4847 269.604C94.4414 266.213 97.9973 264.218 101.389 265.175L281.507 315.921C284.899 316.878 286.894 320.434 285.937 323.825C284.982 327.217 281.424 329.211 278.033 328.255Z" fill="url(#paint6_linear_148_5906)"/>
<path d="M270.032 356.65L89.9133 305.904C86.5216 304.947 84.5272 301.391 85.4838 297.999C86.4404 294.608 89.9964 292.613 93.3881 293.57L273.507 344.316C276.898 345.271 278.893 348.829 277.936 352.22C276.981 355.612 273.425 357.606 270.032 356.65Z" fill="url(#paint7_linear_148_5906)"/>
<path d="M262.033 385.048L81.9143 334.302C78.5226 333.347 76.5281 329.789 77.4847 326.398C78.4395 323.006 81.9974 321.012 85.3891 321.968L265.507 372.714C268.899 373.669 270.894 377.227 269.937 380.619C268.982 384.01 265.424 386.003 262.033 385.048Z" fill="url(#paint8_linear_148_5906)"/>
<path d="M256.934 37.9705L59.3569 17.3767C51.6188 16.5708 44.6904 22.1889 43.8845 29.929L11.5966 339.704C10.7907 347.442 16.4087 354.37 24.1488 355.176L264.404 380.217C272.142 381.023 279.07 375.404 279.876 367.664L307.715 100.569L256.934 37.9705Z" fill="#FCFBFE"/>
<path d="M252.486 80.6473C251.68 88.3855 257.298 95.3138 265.036 96.1197L307.714 100.569L256.933 37.9697L252.486 80.6473Z" fill="#E8E6F0"/>
<path d="M262.831 95.7124L306.966 107.751L307.716 100.569L262.831 95.7124Z" fill="#C1BBD4"/>
<path d="M130.573 63.5798L71.2672 58.3912C70.7519 58.3461 70.3912 57.6662 70.4607 56.8711C70.8787 55.6167 70.296 50.4697 71.938 50.7237L131.244 55.9123C132.844 55.9334 131.531 60.9316 131.631 62.2228C131.562 63.0151 131.088 63.6249 130.573 63.5798Z" fill="url(#paint9_linear_148_5906)"/>
<path d="M127.411 99.7258L68.1051 94.5372C67.5897 94.4921 67.229 93.8122 67.2986 93.0171C67.7166 91.7627 67.1339 86.6157 68.7759 86.8697L128.082 92.0583C129.682 92.0794 128.369 97.0776 128.469 98.3688C128.4 99.1639 127.926 99.7708 127.411 99.7258Z" fill="url(#paint10_linear_148_5906)"/>
<path d="M200.106 106.086L140.8 100.897C140.285 100.852 139.924 100.172 139.994 99.3769C140.412 98.1225 139.829 92.9755 141.471 93.2296L200.777 98.4182C202.377 98.4393 201.065 103.437 201.164 104.729C201.095 105.524 200.622 106.131 200.106 106.086Z" fill="url(#paint11_linear_148_5906)"/>
<path d="M203.461 88.1664L108.028 79.817C106.419 79.7952 107.746 74.7982 107.641 73.5065C107.783 69.3997 203.091 81.7809 204.134 80.4962C205.739 80.5206 204.414 85.5177 204.519 86.8094C204.45 87.6045 203.977 88.2114 203.461 88.1664Z" fill="url(#paint12_linear_148_5906)"/>
<path d="M229.643 72.2471L183.858 68.2414C183.342 68.1963 182.981 67.5164 183.051 66.7213C183.447 65.465 182.903 60.3213 184.528 60.574L230.314 64.5797C231.91 64.6004 230.603 69.5991 230.701 70.8902C230.632 71.6825 230.158 72.2922 229.643 72.2471Z" fill="url(#paint13_linear_148_5906)"/>
<path d="M170.689 67.0892C170.278 66.2888 141.925 66.3393 143.156 63.2309C143.52 61.9717 143.032 56.833 144.634 57.0835L171.359 59.4217C172.952 59.4422 171.652 64.4415 171.747 65.7322C171.677 66.5245 171.204 67.1343 170.689 67.0892Z" fill="#F9A74E"/>
<path d="M96.4122 78.8011C96.0015 78.0008 67.6483 78.0512 68.8799 74.9428C69.2433 73.6836 68.7553 68.5449 70.3572 68.7954L97.083 71.1337C98.6757 71.1541 97.376 76.1534 97.4704 77.4441C97.4008 78.2393 96.9257 78.846 96.4122 78.8011Z" fill="#FEC632"/>
<path d="M110.98 116.501L66.5238 112.612C66.0084 112.567 65.6477 111.887 65.7173 111.091C66.1098 109.835 65.5708 104.692 67.1946 104.944L111.651 108.834C113.247 108.854 111.94 113.853 112.038 115.144C111.969 115.936 111.495 116.546 110.98 116.501Z" fill="url(#paint14_linear_148_5906)"/>
<path d="M151.649 120.059L123.483 117.594C121.89 117.574 123.19 112.575 123.095 111.284C123.165 110.489 123.638 109.882 124.153 109.927L152.32 112.391C153.912 112.412 152.613 117.411 152.707 118.702C152.639 119.494 152.164 120.104 151.649 120.059Z" fill="#FFDE39"/>
<path d="M146.347 146.03L64.7372 138.89C64.0281 138.828 63.5105 138.135 63.5801 137.34C64.1132 136.095 63.1449 130.915 65.408 131.223L147.018 138.363C149.216 138.436 147.577 143.406 147.756 144.704C147.687 145.496 147.056 146.092 146.347 146.03Z" fill="url(#paint15_linear_148_5906)"/>
<path d="M143.185 182.176L61.5751 175.036C60.8659 174.974 60.3484 174.281 60.418 173.486C60.951 172.241 59.9827 167.061 62.2459 167.369L143.856 174.509C146.054 174.582 144.415 179.552 144.594 180.85C144.524 181.645 143.894 182.238 143.185 182.176Z" fill="url(#paint16_linear_148_5906)"/>
<path d="M243.22 190.928L161.61 183.788C160.901 183.726 160.383 183.033 160.453 182.238C160.986 180.993 160.018 175.813 162.281 176.121L243.891 183.261C246.089 183.334 244.45 188.304 244.629 189.602C244.559 190.397 243.929 190.99 243.22 190.928Z" fill="url(#paint17_linear_148_5906)"/>
<path d="M247.242 173.067L115.918 161.578C113.707 161.503 115.367 156.536 115.18 155.237C115.242 151.123 246.526 166.652 247.916 165.397C250.121 165.474 248.464 170.442 248.651 171.741C248.581 172.536 247.951 173.129 247.242 173.067Z" fill="url(#paint18_linear_148_5906)"/>
<path d="M282.676 157.957L219.671 152.445C218.962 152.383 218.444 151.689 218.514 150.894C219.017 149.647 218.101 144.471 220.342 144.777L283.347 150.29C285.54 150.363 283.908 155.333 284.085 156.631C284.015 157.423 283.385 158.019 282.676 157.957Z" fill="url(#paint19_linear_148_5906)"/>
<path d="M201.549 150.86C200.959 150.044 162.026 149.168 163.615 146.091C164.073 144.84 163.235 139.671 165.443 139.975L202.22 143.192C204.408 143.265 202.786 148.236 202.958 149.533C202.889 150.326 202.259 150.922 201.549 150.86Z" fill="#F9A74E"/>
<path d="M99.9334 160.179C99.3433 159.363 60.4095 158.488 61.9993 155.411C62.4572 154.16 61.6192 148.991 63.8272 149.294L100.604 152.512C102.792 152.584 101.17 157.556 101.342 158.853C101.273 159.648 100.64 160.241 99.9334 160.179Z" fill="#FEC632"/>
<path d="M121.169 198.463L59.9937 193.111C59.2846 193.049 58.7671 192.355 58.8366 191.56C59.3346 190.313 58.4265 185.137 60.6646 185.443L121.84 190.796C124.033 190.869 122.401 195.839 122.578 197.137C122.509 197.929 121.879 198.525 121.169 198.463Z" fill="url(#paint20_linear_148_5906)"/>
<path d="M177.133 203.359L138.374 199.968C136.186 199.895 137.808 194.924 137.636 193.627C137.706 192.832 138.336 192.238 139.045 192.301L177.804 195.692C179.992 195.764 178.37 200.735 178.542 202.033C178.475 202.825 177.842 203.421 177.133 203.359Z" fill="#FFDE39"/>
<path d="M138.301 226.497L56.6906 219.357C55.9815 219.295 55.464 218.602 55.5335 217.806C56.0666 216.562 55.0983 211.381 57.3615 211.69L138.972 218.83C141.169 218.903 139.53 223.873 139.71 225.171C139.64 225.963 139.01 226.559 138.301 226.497Z" fill="url(#paint21_linear_148_5906)"/>
<path d="M135.138 262.643L53.5284 255.503C52.8192 255.441 52.3017 254.748 52.3712 253.952C52.9043 252.708 51.936 247.527 54.1992 247.836L135.809 254.976C138.007 255.049 136.368 260.019 136.547 261.317C136.478 262.112 135.848 262.705 135.138 262.643Z" fill="url(#paint22_linear_148_5906)"/>
<path d="M235.173 271.396L153.563 264.256C152.854 264.194 152.337 263.5 152.406 262.705C152.939 261.461 151.971 256.28 154.234 256.588L235.844 263.728C238.042 263.802 236.403 268.771 236.582 270.069C236.513 270.864 235.883 271.458 235.173 271.396Z" fill="url(#paint23_linear_148_5906)"/>
<path d="M239.195 253.534L107.871 242.045C105.661 241.97 107.32 237.002 107.133 235.704C107.195 231.59 238.479 247.118 239.869 245.864C242.074 245.941 240.417 250.909 240.604 252.208C240.535 253.003 239.905 253.596 239.195 253.534Z" fill="url(#paint24_linear_148_5906)"/>
<path d="M274.629 238.424L211.624 232.912C210.915 232.85 210.398 232.156 210.467 231.361C210.97 230.114 210.055 224.938 212.295 225.245L275.3 230.757C277.493 230.83 275.861 235.8 276.038 237.098C275.969 237.89 275.338 238.486 274.629 238.424Z" fill="url(#paint25_linear_148_5906)"/>
<path d="M193.503 231.326C192.913 230.51 153.979 229.635 155.569 226.558C156.026 225.307 155.188 220.138 157.397 220.441L194.174 223.659C196.361 223.731 194.74 228.703 194.912 230C194.842 230.792 194.212 231.388 193.503 231.326Z" fill="#F9A74E"/>
<path d="M91.8867 240.647C91.2966 239.831 52.3628 238.955 53.9526 235.878C54.4105 234.627 53.5725 229.458 55.7805 229.762L92.5575 232.979C94.7454 233.052 93.1237 238.023 93.2955 239.32C93.226 240.116 92.5933 240.709 91.8867 240.647Z" fill="#FEC632"/>
<path d="M113.123 278.93L51.947 273.578C51.2379 273.516 50.7204 272.822 50.7899 272.027C51.2879 270.78 50.3798 265.604 52.6178 265.91L113.793 271.262C115.986 271.335 114.355 276.306 114.531 277.604C114.462 278.396 113.832 278.992 113.123 278.93Z" fill="url(#paint26_linear_148_5906)"/>
<path d="M169.086 283.826L130.327 280.435C128.139 280.362 129.761 275.391 129.589 274.094C129.659 273.298 130.289 272.705 130.998 272.767L169.757 276.158C171.945 276.231 170.323 281.202 170.495 282.499C170.428 283.292 169.796 283.888 169.086 283.826Z" fill="#FFDE39"/>
<path d="M102.778 307.882L49.6312 303.232C49.1694 303.192 48.852 302.515 48.9216 301.72C49.3078 300.463 48.8316 295.325 50.3021 295.565L103.448 300.214C104.883 300.221 103.661 305.227 103.739 306.516C103.67 307.309 103.239 307.922 102.778 307.882Z" fill="url(#paint27_linear_148_5906)"/>
<path d="M167.931 331.792L82.4093 324.31C80.9663 324.302 82.2016 319.297 82.1188 318.008C82.2839 313.903 167.657 325.415 168.603 324.122C170.043 324.131 168.809 329.136 168.892 330.426C168.822 331.221 168.392 331.832 167.931 331.792Z" fill="url(#paint28_linear_148_5906)"/>
<path d="M191.557 315.648L150.527 312.059C150.065 312.018 149.748 311.342 149.818 310.547C150.184 309.288 149.742 304.154 151.198 304.391L192.228 307.981C193.66 307.987 192.442 312.994 192.519 314.283C192.449 315.075 192.019 315.689 191.557 315.648Z" fill="url(#paint29_linear_148_5906)"/>
<path d="M138.726 311.026C138.365 310.23 112.934 310.537 114.066 307.419C114.404 306.158 114.012 301.028 115.447 301.264L139.397 303.359C140.825 303.365 139.614 308.372 139.687 309.661C139.618 310.453 139.188 311.067 138.726 311.026Z" fill="#F9A74E"/>
<path d="M72 323.399C71.6388 322.603 46.2077 322.909 47.3404 319.792C47.6776 318.531 47.2862 313.4 48.7208 313.636L72.6708 315.732C74.0992 315.738 72.8883 320.745 72.9614 322.034C72.8918 322.829 72.4602 323.439 72 323.399Z" fill="#FEC632"/>
<g clip-path="url(#clip0_148_5906)">
<path d="M229.703 326.713L233.405 325.27L234.769 321.598C234.834 321.27 235.158 321.074 235.483 321.074C235.743 321.074 236.068 321.27 236.133 321.598L237.561 325.27L241.198 326.713C241.523 326.778 241.718 327.106 241.718 327.368C241.718 327.696 241.523 328.024 241.198 328.089L237.561 329.466L236.133 333.204C236.068 333.466 235.743 333.663 235.483 333.663C235.158 333.663 234.834 333.466 234.769 333.204L233.405 329.466L229.703 328.089C229.378 328.024 229.249 327.696 229.249 327.368C229.249 327.106 229.378 326.778 229.703 326.713ZM225.157 333.4L232.561 336.81C232.95 337.007 233.21 337.4 233.21 337.793C233.21 338.187 232.95 338.58 232.561 338.777L225.157 342.186L221.78 349.661C221.585 350.055 221.196 350.317 220.806 350.317C220.416 350.317 220.027 350.055 219.897 349.661L216.455 342.186L209.051 338.777C208.662 338.58 208.467 338.187 208.467 337.793C208.467 337.4 208.662 337.007 209.051 336.81L216.455 333.4L219.897 325.926C220.027 325.532 220.416 325.27 220.806 325.27C221.196 325.27 221.585 325.532 221.78 325.926L225.157 333.4ZM234.769 342.58C234.834 342.252 235.158 342.055 235.483 342.055C235.743 342.055 236.068 342.252 236.133 342.58L237.561 346.252L241.198 347.694C241.523 347.76 241.718 348.087 241.718 348.35C241.718 348.678 241.523 349.006 241.198 349.071L237.561 350.448L236.133 354.185C236.068 354.448 235.743 354.644 235.483 354.644C235.158 354.644 234.834 354.448 234.769 354.185L233.405 350.448L229.703 349.071C229.378 349.006 229.249 348.678 229.249 348.35C229.249 348.087 229.378 347.76 229.703 347.694L233.405 346.252L234.769 342.58Z" fill="#382673"/>
</g>
<path d="M378.639 307.279C378.771 314.423 379.969 324.071 384.833 330.178C387.637 333.699 391.291 335.718 395.691 336.18C415.451 338.252 426.293 314.253 426.745 313.23C427.56 311.387 426.726 309.234 424.883 308.42C423.042 307.607 420.892 308.439 420.075 310.278C419.986 310.479 410.92 330.443 396.451 328.925C394.034 328.672 392.099 327.595 390.536 325.633C385.188 318.918 385.645 304.049 386.273 298.887C386.516 296.888 385.093 295.07 383.094 294.827C381.094 294.584 379.276 296.007 379.033 298.006C378.99 298.373 378.544 302.192 378.639 307.279Z" fill="#473080"/>
<path d="M374.629 285.187L374.758 292.19C374.828 296.017 377.759 299.136 381.573 299.445L384.013 299.643C386.098 299.813 388.167 299.088 389.693 297.657C391.218 296.225 392.069 294.204 392.03 292.113L391.823 280.943C391.785 278.929 390.122 277.326 388.109 277.363C386.095 277.401 384.492 279.064 384.529 281.078L384.736 292.248C384.736 292.268 384.738 292.302 384.698 292.34C384.657 292.377 384.624 292.374 384.604 292.373L382.163 292.175C382.1 292.169 382.051 292.118 382.05 292.054L381.92 285.051C381.883 283.037 380.22 281.434 378.206 281.472C376.194 281.51 374.591 283.173 374.629 285.187Z" fill="#473080"/>
<path d="M535.421 314.766C535.289 321.91 533.955 331.555 528.451 337.651C525.279 341.164 521.138 343.175 516.146 343.625C493.732 345.649 481.371 321.621 480.856 320.598C479.927 318.754 480.867 316.602 482.956 315.792C485.043 314.983 487.485 315.82 488.415 317.661C488.517 317.864 498.852 337.851 515.265 336.369C518.007 336.122 520.199 335.049 521.967 333.092C528.02 326.389 527.463 311.519 526.738 306.354C526.456 304.355 528.068 302.54 530.336 302.301C532.604 302.062 534.67 303.491 534.951 305.491C535 305.86 535.515 309.679 535.421 314.766Z" fill="#473080"/>
<path d="M541.293 292.014L541.164 299.018C541.093 302.844 537.777 305.956 533.451 306.256L530.681 306.449C528.316 306.613 525.966 305.884 524.233 304.448C522.499 303.012 521.527 300.99 521.566 298.898L521.773 287.728C521.811 285.714 523.694 284.116 525.978 284.159C528.263 284.201 530.084 285.868 530.047 287.882L529.84 299.052C529.84 299.072 529.839 299.107 529.885 299.144C529.929 299.181 529.968 299.179 529.991 299.177L532.761 298.984C532.833 298.98 532.887 298.928 532.889 298.865L533.018 291.862C533.055 289.848 534.938 288.25 537.222 288.293C539.509 288.333 541.331 290.001 541.293 292.014Z" fill="#473080"/>
<path d="M510.833 263.091H503.124V241.525H510.833C512.688 241.525 514.19 243.027 514.19 244.882V259.734C514.19 261.589 512.686 263.091 510.833 263.091Z" fill="white"/>
<path d="M505.88 263.565H503.123C502.861 263.565 502.649 263.353 502.649 263.091V241.526C502.649 241.264 502.861 241.051 503.123 241.051H505.88C510.723 241.051 514.663 244.991 514.663 249.834V254.783C514.664 259.625 510.724 263.565 505.88 263.565ZM503.597 262.617H505.88C510.199 262.617 513.714 259.102 513.714 254.783V249.834C513.714 245.514 510.199 242 505.88 242H503.597V262.617Z" fill="#382673"/>
<path d="M398.041 263.091H405.75V241.525H398.041C396.187 241.525 394.685 243.027 394.685 244.882V259.734C394.685 261.589 396.187 263.091 398.041 263.091Z" fill="white"/>
<path d="M405.75 263.565H402.993C398.15 263.565 394.211 259.625 394.211 254.783V249.834C394.211 244.991 398.15 241.051 402.993 241.051H405.75C406.012 241.051 406.224 241.264 406.224 241.526V263.092C406.223 263.353 406.012 263.565 405.75 263.565ZM402.993 241.999C398.674 241.999 395.159 245.513 395.159 249.832V254.781C395.159 259.101 398.674 262.615 402.993 262.615H405.276V241.999H402.993Z" fill="#382673"/>
<path d="M402.264 251.419C402.264 228.245 425.624 204.273 454.438 204.273C483.252 204.273 506.612 228.245 506.612 251.419C506.612 274.592 483.252 288.193 454.438 288.193C425.624 288.193 402.264 274.592 402.264 251.419Z" fill="white"/>
<path d="M454.436 288.667C439.93 288.667 426.735 285.194 417.281 278.89C407.146 272.129 401.789 262.631 401.789 251.418C401.789 239.927 407.413 228.043 417.219 218.81C427.499 209.129 440.718 203.799 454.436 203.799C468.155 203.799 481.372 209.131 491.654 218.81C501.46 228.043 507.084 239.929 507.084 251.418C507.084 262.631 501.727 272.131 491.592 278.89C482.138 285.194 468.943 288.667 454.436 288.667ZM454.436 204.747C424.847 204.747 402.737 229.387 402.737 251.418C402.737 262.299 407.948 271.526 417.807 278.1C427.106 284.303 440.114 287.718 454.436 287.718C468.757 287.718 481.766 284.303 491.065 278.1C500.924 271.526 506.134 262.298 506.134 251.418C506.136 229.387 484.026 204.747 454.436 204.747Z" fill="#382673"/>
<path d="M467.505 295.154H441.369C429.913 295.154 420.627 304.441 420.627 315.896C420.627 323.464 421.366 331.015 422.832 338.44L426.59 357.472C429.216 370.772 440.88 380.36 454.438 380.36C467.996 380.36 479.66 370.772 482.286 357.472L486.044 338.44C487.51 331.015 488.249 323.466 488.249 315.896C488.247 304.441 478.96 295.154 467.505 295.154Z" fill="white"/>
<path d="M454.437 380.834C440.692 380.834 428.785 371.048 426.122 357.563L422.365 338.532C420.896 331.094 420.151 323.478 420.151 315.897C420.151 304.198 429.669 294.681 441.368 294.681H467.504C479.203 294.681 488.72 304.198 488.72 315.897C488.72 323.478 487.976 331.094 486.507 338.532L482.749 357.563C480.088 371.046 468.181 380.834 454.437 380.834ZM441.368 295.628C430.192 295.628 421.099 304.72 421.099 315.897C421.099 323.418 421.838 330.971 423.294 338.35L427.051 357.381C429.625 370.421 441.142 379.886 454.435 379.886C467.727 379.886 479.243 370.421 481.818 357.381L485.575 338.35C487.031 330.971 487.77 323.418 487.77 315.897C487.77 304.721 478.678 295.628 467.503 295.628H441.368Z" fill="#382673"/>
<path d="M457.701 341.112H451.171C445.116 341.112 440.209 336.205 440.209 330.15V295.154H468.662V330.15C468.664 336.205 463.755 341.112 457.701 341.112Z" fill="#FEC632"/>
<path d="M468.664 295.629H440.21C439.949 295.629 439.736 295.416 439.736 295.155C439.736 294.893 439.949 294.68 440.21 294.68H468.664C468.926 294.68 469.138 294.893 469.138 295.155C469.137 295.416 468.926 295.629 468.664 295.629Z" fill="black"/>
<path d="M485.49 243.458H435.249C430.029 243.458 425.798 248.018 425.798 253.643V260.286C425.798 264.575 428.087 269.122 432.036 269.864C445.959 272.48 474.779 272.48 488.701 269.864C492.65 269.122 494.94 264.575 494.94 260.286V253.643C494.941 248.017 490.709 243.458 485.49 243.458Z" fill="#473080"/>
<path d="M445.473 256.827C445.473 258.711 444.055 260.239 442.306 260.239C440.558 260.239 439.14 258.711 439.14 256.827C439.14 254.943 440.557 253.415 442.306 253.415C444.055 253.416 445.473 254.943 445.473 256.827Z" fill="#FCFBFE"/>
<path d="M475.992 260.239C477.741 260.239 479.158 258.712 479.158 256.827C479.158 254.942 477.741 253.415 475.992 253.415C474.243 253.415 472.825 254.942 472.825 256.827C472.825 258.712 474.243 260.239 475.992 260.239Z" fill="#FCFBFE"/>
<path d="M369.942 279.882C377.666 279.882 383.927 273.585 383.927 265.817C383.927 258.049 377.666 251.751 369.942 251.751C362.218 251.751 355.956 258.049 355.956 265.817C355.956 273.585 362.218 279.882 369.942 279.882Z" fill="#FEC632"/>
<g clip-path="url(#clip1_148_5906)">
<path d="M371.039 260.384L372.961 259.647L373.67 257.772C373.703 257.604 373.872 257.504 374.041 257.504C374.176 257.504 374.344 257.604 374.378 257.772L375.12 259.647L377.009 260.384C377.178 260.417 377.279 260.584 377.279 260.718C377.279 260.886 377.178 261.053 377.009 261.087L375.12 261.79L374.378 263.698C374.344 263.832 374.176 263.933 374.041 263.933C373.872 263.933 373.703 263.832 373.67 263.698L372.961 261.79L371.039 261.087C370.87 261.053 370.803 260.886 370.803 260.718C370.803 260.584 370.87 260.417 371.039 260.384ZM368.677 263.799L372.523 265.54C372.725 265.64 372.86 265.841 372.86 266.042C372.86 266.243 372.725 266.444 372.523 266.545L368.677 268.286L366.923 272.103C366.822 272.304 366.62 272.438 366.417 272.438C366.215 272.438 366.013 272.304 365.945 272.103L364.157 268.286L360.312 266.545C360.109 266.444 360.008 266.243 360.008 266.042C360.008 265.841 360.109 265.64 360.312 265.54L364.157 263.799L365.945 259.982C366.013 259.781 366.215 259.647 366.417 259.647C366.62 259.647 366.822 259.781 366.923 259.982L368.677 263.799ZM373.67 268.487C373.703 268.319 373.872 268.219 374.041 268.219C374.176 268.219 374.344 268.319 374.378 268.487L375.12 270.362L377.009 271.098C377.178 271.132 377.279 271.299 377.279 271.433C377.279 271.601 377.178 271.768 377.009 271.802L375.12 272.505L374.378 274.413C374.344 274.547 374.176 274.648 374.041 274.648C373.872 274.648 373.703 274.547 373.67 274.413L372.961 272.505L371.039 271.802C370.87 271.768 370.803 271.601 370.803 271.433C370.803 271.299 370.87 271.132 371.039 271.098L372.961 270.362L373.67 268.487Z" fill="white"/>
</g>
<path d="M340.228 300.53C341.467 300.53 342.471 299.526 342.471 298.288C342.471 297.049 341.467 296.045 340.228 296.045C338.99 296.045 337.986 297.049 337.986 298.288C337.986 299.526 338.99 300.53 340.228 300.53Z" fill="#C1BBD4"/>
<path d="M561.779 226.094C563.017 226.094 564.021 225.09 564.021 223.852C564.021 222.613 563.017 221.609 561.779 221.609C560.541 221.609 559.537 222.613 559.537 223.852C559.537 225.09 560.541 226.094 561.779 226.094Z" fill="#C1BBD4"/>
<path d="M381.102 197.542C381.387 196.336 380.641 195.128 379.436 194.843C378.23 194.559 377.022 195.306 376.738 196.512C376.453 197.718 377.199 198.926 378.404 199.211C379.61 199.495 380.817 198.748 381.102 197.542Z" fill="#C1BBD4"/>
<defs>
<linearGradient id="paint0_linear_148_5906" x1="176.096" y1="103.163" x2="302.006" y2="110.555" gradientUnits="userSpaceOnUse">
<stop stop-color="#D7D4E3"/>
<stop offset="1" stop-color="white"/>
</linearGradient>
<linearGradient id="paint1_linear_148_5906" x1="133.035" y1="132.558" x2="323.968" y2="144.608" gradientUnits="userSpaceOnUse">
<stop stop-color="#D7D4E3"/>
<stop offset="1" stop-color="white"/>
</linearGradient>
<linearGradient id="paint2_linear_148_5906" x1="125.034" y1="160.955" x2="315.967" y2="173.005" gradientUnits="userSpaceOnUse">
<stop stop-color="#D7D4E3"/>
<stop offset="1" stop-color="white"/>
</linearGradient>
<linearGradient id="paint3_linear_148_5906" x1="117.033" y1="189.351" x2="307.966" y2="201.401" gradientUnits="userSpaceOnUse">
<stop stop-color="#D7D4E3"/>
<stop offset="1" stop-color="white"/>
</linearGradient>
<linearGradient id="paint4_linear_148_5906" x1="109.032" y1="217.746" x2="299.965" y2="229.796" gradientUnits="userSpaceOnUse">
<stop stop-color="#D7D4E3"/>
<stop offset="1" stop-color="white"/>
</linearGradient>
<linearGradient id="paint5_linear_148_5906" x1="101.032" y1="246.144" x2="291.966" y2="258.194" gradientUnits="userSpaceOnUse">
<stop stop-color="#D7D4E3"/>
<stop offset="1" stop-color="white"/>
</linearGradient>
<linearGradient id="paint6_linear_148_5906" x1="93.0316" y1="274.54" x2="283.965" y2="286.59" gradientUnits="userSpaceOnUse">
<stop stop-color="#D7D4E3"/>
<stop offset="1" stop-color="white"/>
</linearGradient>
<linearGradient id="paint7_linear_148_5906" x1="85.0307" y1="302.935" x2="275.964" y2="314.985" gradientUnits="userSpaceOnUse">
<stop stop-color="#D7D4E3"/>
<stop offset="1" stop-color="white"/>
</linearGradient>
<linearGradient id="paint8_linear_148_5906" x1="77.0316" y1="331.334" x2="267.965" y2="343.383" gradientUnits="userSpaceOnUse">
<stop stop-color="#D7D4E3"/>
<stop offset="1" stop-color="white"/>
</linearGradient>
<linearGradient id="paint9_linear_148_5906" x1="70.7976" y1="51.7898" x2="129.171" y2="66.8089" gradientUnits="userSpaceOnUse">
<stop stop-color="#D7D4E3"/>
<stop offset="1" stop-color="white"/>
</linearGradient>
<linearGradient id="paint10_linear_148_5906" x1="67.6355" y1="87.9358" x2="126.009" y2="102.955" gradientUnits="userSpaceOnUse">
<stop stop-color="#D7D4E3"/>
<stop offset="1" stop-color="white"/>
</linearGradient>
<linearGradient id="paint11_linear_148_5906" x1="140.331" y1="94.2957" x2="198.704" y2="109.315" gradientUnits="userSpaceOnUse">
<stop stop-color="#D7D4E3"/>
<stop offset="1" stop-color="white"/>
</linearGradient>
<linearGradient id="paint12_linear_148_5906" x1="107.539" y1="72.8259" x2="196.67" y2="103.506" gradientUnits="userSpaceOnUse">
<stop stop-color="#D7D4E3"/>
<stop offset="1" stop-color="white"/>
</linearGradient>
<linearGradient id="paint13_linear_148_5906" x1="183.401" y1="61.6412" x2="229.527" y2="71.7607" gradientUnits="userSpaceOnUse">
<stop stop-color="#D7D4E3"/>
<stop offset="1" stop-color="white"/>
</linearGradient>
<linearGradient id="paint14_linear_148_5906" x1="66.0683" y1="106.011" x2="110.965" y2="115.695" gradientUnits="userSpaceOnUse">
<stop stop-color="#D7D4E3"/>
<stop offset="1" stop-color="white"/>
</linearGradient>
<linearGradient id="paint15_linear_148_5906" x1="63.8768" y1="132.255" x2="141.888" y2="157.41" gradientUnits="userSpaceOnUse">
<stop stop-color="#D7D4E3"/>
<stop offset="1" stop-color="white"/>
</linearGradient>
<linearGradient id="paint16_linear_148_5906" x1="60.7147" y1="168.401" x2="138.725" y2="193.556" gradientUnits="userSpaceOnUse">
<stop stop-color="#D7D4E3"/>
<stop offset="1" stop-color="white"/>
</linearGradient>
<linearGradient id="paint17_linear_148_5906" x1="160.75" y1="177.153" x2="238.76" y2="202.308" gradientUnits="userSpaceOnUse">
<stop stop-color="#D7D4E3"/>
<stop offset="1" stop-color="white"/>
</linearGradient>
<linearGradient id="paint18_linear_148_5906" x1="115.018" y1="154.551" x2="230.602" y2="205.841" gradientUnits="userSpaceOnUse">
<stop stop-color="#D7D4E3"/>
<stop offset="1" stop-color="white"/>
</linearGradient>
<linearGradient id="paint19_linear_148_5906" x1="218.829" y1="145.811" x2="281.111" y2="162.614" gradientUnits="userSpaceOnUse">
<stop stop-color="#D7D4E3"/>
<stop offset="1" stop-color="white"/>
</linearGradient>
<linearGradient id="paint20_linear_148_5906" x1="59.1528" y1="186.477" x2="119.831" y2="202.534" gradientUnits="userSpaceOnUse">
<stop stop-color="#D7D4E3"/>
<stop offset="1" stop-color="white"/>
</linearGradient>
<linearGradient id="paint21_linear_148_5906" x1="55.8303" y1="212.722" x2="133.841" y2="237.877" gradientUnits="userSpaceOnUse">
<stop stop-color="#D7D4E3"/>
<stop offset="1" stop-color="white"/>
</linearGradient>
<linearGradient id="paint22_linear_148_5906" x1="52.668" y1="248.868" x2="130.679" y2="274.023" gradientUnits="userSpaceOnUse">
<stop stop-color="#D7D4E3"/>
<stop offset="1" stop-color="white"/>
</linearGradient>
<linearGradient id="paint23_linear_148_5906" x1="152.703" y1="257.62" x2="230.714" y2="282.775" gradientUnits="userSpaceOnUse">
<stop stop-color="#D7D4E3"/>
<stop offset="1" stop-color="white"/>
</linearGradient>
<linearGradient id="paint24_linear_148_5906" x1="106.971" y1="235.018" x2="222.555" y2="286.308" gradientUnits="userSpaceOnUse">
<stop stop-color="#D7D4E3"/>
<stop offset="1" stop-color="white"/>
</linearGradient>
<linearGradient id="paint25_linear_148_5906" x1="210.782" y1="226.278" x2="273.065" y2="243.081" gradientUnits="userSpaceOnUse">
<stop stop-color="#D7D4E3"/>
<stop offset="1" stop-color="white"/>
</linearGradient>
<linearGradient id="paint26_linear_148_5906" x1="51.1061" y1="266.944" x2="111.784" y2="283.001" gradientUnits="userSpaceOnUse">
<stop stop-color="#D7D4E3"/>
<stop offset="1" stop-color="white"/>
</linearGradient>
<linearGradient id="paint27_linear_148_5906" x1="49.2696" y1="296.64" x2="101.939" y2="309.25" gradientUnits="userSpaceOnUse">
<stop stop-color="#D7D4E3"/>
<stop offset="1" stop-color="white"/>
</linearGradient>
<linearGradient id="paint28_linear_148_5906" x1="82.0337" y1="317.328" x2="163.025" y2="343.004" gradientUnits="userSpaceOnUse">
<stop stop-color="#D7D4E3"/>
<stop offset="1" stop-color="white"/>
</linearGradient>
<linearGradient id="paint29_linear_148_5906" x1="150.178" y1="305.468" x2="191.696" y2="314.002" gradientUnits="userSpaceOnUse">
<stop stop-color="#D7D4E3"/>
<stop offset="1" stop-color="white"/>
</linearGradient>
<clipPath id="clip0_148_5906">
<rect width="33.2508" height="35.8086" fill="white" transform="translate(208.467 319.115)"/>
</clipPath>
<clipPath id="clip1_148_5906">
<rect width="17.2708" height="18.2867" fill="white" transform="translate(360.008 256.504)"/>
</clipPath>
</defs>
</svg>
