<svg width="26" height="26" fill="none" xmlns="http://www.w3.org/2000/svg"><path d="M13 7.682A5.326 5.326 0 0 0 7.682 13 5.326 5.326 0 0 0 13 18.318 5.326 5.326 0 0 0 18.318 13 5.326 5.326 0 0 0 13 7.682zm0 9.454A4.14 4.14 0 0 1 8.863 13 4.14 4.14 0 0 1 13 8.863 4.14 4.14 0 0 1 17.136 13 4.141 4.141 0 0 1 13 17.136z" fill="currentColor"/><path d="m25.515 10.648-2.895-.526a9.746 9.746 0 0 0-.78-1.885l1.672-2.417a.585.585 0 0 0-.07-.756L20.935 2.56a.6.6 0 0 0-.756-.071L17.757 4.16a9.747 9.747 0 0 0-1.885-.78L15.346.49a.578.578 0 0 0-.573-.49h-3.546a.59.59 0 0 0-.579.485l-.526 2.89a9.746 9.746 0 0 0-1.885.78L5.815 2.481a.593.593 0 0 0-.757.07L2.553 5.059c-.201.201-.23.52-.071.757L4.154 8.23a9.746 9.746 0 0 0-.78 1.885l-2.895.526a.601.601 0 0 0-.479.585v3.546a.59.59 0 0 0 .485.579l2.895.526c.195.656.455 1.288.78 1.885l-1.672 2.416a.585.585 0 0 0 .07.757l2.506 2.505a.595.595 0 0 0 .756.065l2.423-1.672c.597.325 1.23.585 1.885.78l.526 2.89c.041.29.29.496.573.496h3.546a.59.59 0 0 0 .579-.485l.526-2.89a9.747 9.747 0 0 0 1.885-.78l2.422 1.673c.1.071.22.107.337.107a.605.605 0 0 0 .42-.172l2.505-2.505c.201-.201.23-.52.071-.757l-1.672-2.416a9.744 9.744 0 0 0 .78-1.885l2.895-.526a.613.613 0 0 0 .479-.591v-3.546a.59.59 0 0 0-.485-.579zM4.09 10.111a.825.825 0 0 0-.106-.048.282.282 0 0 1 .153-.018c.012 0-.011.03-.047.066zm20.73 4.171-2.766.502a.58.58 0 0 0-.45.402c-.005.012-.011.018-.017.03a8.73 8.73 0 0 1-.945 2.287.156.156 0 0 0-.03.088.573.573 0 0 0 .053.55l1.601 2.31-1.808 1.808-2.316-1.6a.572.572 0 0 0-.55-.054c-.023 0-.047.012-.088.03-.71.42-1.477.738-2.287.945-.024.006-.03.018-.047.024a.579.579 0 0 0-.385.443l-.502 2.771h-2.558l-.503-2.765a.576.576 0 0 0-.39-.444c-.011-.005-.023-.017-.041-.023a8.732 8.732 0 0 1-2.287-.945.156.156 0 0 0-.088-.03.572.572 0 0 0-.55.053l-2.316 1.601-1.809-1.808 1.602-2.31a.572.572 0 0 0 .053-.55.17.17 0 0 0-.03-.088 8.814 8.814 0 0 1-.945-2.287c-.006-.012-.012-.018-.018-.03a.588.588 0 0 0-.449-.402l-2.771-.508v-2.558l2.765-.503a.582.582 0 0 0 .455-.42c0-.005.006-.005.012-.017a8.73 8.73 0 0 1 .946-2.287.156.156 0 0 0 .03-.088.574.574 0 0 0-.054-.55L3.735 5.55 5.543 3.74l2.316 1.602a.59.59 0 0 0 .313.094c.006.006.012.012.024.012a.346.346 0 0 0 .077-.012c.012 0 .03 0 .041-.006a.64.64 0 0 0 .177-.065 8.731 8.731 0 0 1 2.287-.945c.018-.006.024-.012.036-.018a.583.583 0 0 0 .396-.443l.508-2.777h2.558l.503 2.765a.583.583 0 0 0 .413.455c.006 0 .012.006.018.012.81.207 1.578.526 2.287.946h.006c.189.112.437.112.632-.024l2.316-1.601 1.808 1.808-1.6 2.31a.572.572 0 0 0-.054.55.17.17 0 0 0 .03.088c.42.71.738 1.484.945 2.287 0 .006.006.006.012.018a.59.59 0 0 0 .455.42l2.771.502v2.564z" fill="currentColor"/></svg>